<svg width="158" height="158" viewBox="0 0 158 158" fill="none" xmlns="http://www.w3.org/2000/svg">
<g filter="url(#filter0_d_137_4)">
<circle cx="79" cy="75" r="75" fill="white"/>
</g>
<path d="M43 39H115V110.713H43V39Z" fill="white" fill-opacity="0.01"/>
<path d="M107.5 62.9043V101.749H50.5V62.9043" stroke="black" stroke-width="3.20702" stroke-linecap="round" stroke-linejoin="round"/>
<path d="M50.5 44.9766H107.5V62.9049H50.5V44.9766Z" fill="#2F88FF" stroke="black" stroke-width="3.20702" stroke-linejoin="round"/>
<path fill-rule="evenodd" clip-rule="evenodd" d="M59.5 56.9282C61.1569 56.9282 62.5 55.5905 62.5 53.9402C62.5 52.2899 61.1569 50.9521 59.5 50.9521C57.8431 50.9521 56.5 52.2899 56.5 53.9402C56.5 55.5905 57.8431 56.9282 59.5 56.9282Z" fill="white"/>
<path fill-rule="evenodd" clip-rule="evenodd" d="M68.5 56.9282C70.1569 56.9282 71.5 55.5905 71.5 53.9402C71.5 52.2899 70.1569 50.9521 68.5 50.9521C66.8431 50.9521 65.5 52.2899 65.5 53.9402C65.5 55.5905 66.8431 56.9282 68.5 56.9282Z" fill="white"/>
<path fill-rule="evenodd" clip-rule="evenodd" d="M77.5 56.9282C79.1569 56.9282 80.5 55.5905 80.5 53.9402C80.5 52.2899 79.1569 50.9521 77.5 50.9521C75.8431 50.9521 74.5 52.2899 74.5 53.9402C74.5 55.5905 75.8431 56.9282 77.5 56.9282Z" fill="white"/>
<defs>
<filter id="filter0_d_137_4" x="0" y="0" width="158" height="158" filterUnits="userSpaceOnUse" color-interpolation-filters="sRGB">
<feFlood flood-opacity="0" result="BackgroundImageFix"/>
<feColorMatrix in="SourceAlpha" type="matrix" values="0 0 0 0 0 0 0 0 0 0 0 0 0 0 0 0 0 0 127 0" result="hardAlpha"/>
<feOffset dy="4"/>
<feGaussianBlur stdDeviation="2"/>
<feComposite in2="hardAlpha" operator="out"/>
<feColorMatrix type="matrix" values="0 0 0 0 0 0 0 0 0 0 0 0 0 0 0 0 0 0 0.25 0"/>
<feBlend mode="normal" in2="BackgroundImageFix" result="effect1_dropShadow_137_4"/>
<feBlend mode="normal" in="SourceGraphic" in2="effect1_dropShadow_137_4" result="shape"/>
</filter>
</defs>
</svg>
