<svg width="158" height="158" viewBox="0 0 158 158" fill="none" xmlns="http://www.w3.org/2000/svg">
<g filter="url(#filter0_d_137_5)">
<circle cx="79" cy="75" r="75" fill="white"/>
</g>
<path d="M43 39H115V110.713H43V39Z" fill="white" fill-opacity="0.01"/>
<path d="M100 59.917H58C56.3431 59.917 55 61.2548 55 62.905V101.75C55 103.4 56.3431 104.738 58 104.738H100C101.657 104.738 103 103.4 103 101.75V62.905C103 61.2548 101.657 59.917 100 59.917Z" fill="#2F88FF" stroke="black" stroke-width="6.80336" stroke-linecap="round" stroke-linejoin="round"/>
<path d="M68.5 65.8929V55.4347C68.5 49.6588 73.201 44.9766 79 44.9766C84.799 44.9766 89.5 49.6588 89.5 55.4347V65.8929" stroke="black" stroke-width="6.80336" stroke-linecap="round" stroke-linejoin="round"/>
<defs>
<filter id="filter0_d_137_5" x="0" y="0" width="158" height="158" filterUnits="userSpaceOnUse" color-interpolation-filters="sRGB">
<feFlood flood-opacity="0" result="BackgroundImageFix"/>
<feColorMatrix in="SourceAlpha" type="matrix" values="0 0 0 0 0 0 0 0 0 0 0 0 0 0 0 0 0 0 127 0" result="hardAlpha"/>
<feOffset dy="4"/>
<feGaussianBlur stdDeviation="2"/>
<feComposite in2="hardAlpha" operator="out"/>
<feColorMatrix type="matrix" values="0 0 0 0 0 0 0 0 0 0 0 0 0 0 0 0 0 0 0.25 0"/>
<feBlend mode="normal" in2="BackgroundImageFix" result="effect1_dropShadow_137_5"/>
<feBlend mode="normal" in="SourceGraphic" in2="effect1_dropShadow_137_5" result="shape"/>
</filter>
</defs>
</svg>
